<mxfile host="app.diagrams.net" modified="2022-03-30T09:34:17.873Z" agent="5.0 (Windows NT 10.0; Win64; x64) AppleWebKit/537.36 (KHTML, like Gecko) Chrome/99.0.4844.74 Safari/537.36 Edg/99.0.1150.52" etag="-77KpuYx5cisgGCRtaZj" version="17.2.6" type="github">
  <diagram id="07c9RrS9SVd9Lm5BTsj2" name="第 1 页">
    <mxGraphModel dx="990" dy="539" grid="1" gridSize="10" guides="1" tooltips="1" connect="1" arrows="1" fold="1" page="1" pageScale="1" pageWidth="827" pageHeight="1169" math="0" shadow="0">
      <root>
        <mxCell id="0" />
        <mxCell id="1" parent="0" />
        <mxCell id="NTy9AXHpRJVvZ0lb5smv-11" value="" style="edgeStyle=orthogonalEdgeStyle;shape=flexArrow;rounded=0;orthogonalLoop=1;jettySize=auto;html=1;" edge="1" parent="1" source="NTy9AXHpRJVvZ0lb5smv-9" target="NTy9AXHpRJVvZ0lb5smv-10">
          <mxGeometry relative="1" as="geometry" />
        </mxCell>
        <mxCell id="NTy9AXHpRJVvZ0lb5smv-9" value="" style="rounded=1;whiteSpace=wrap;html=1;" vertex="1" parent="1">
          <mxGeometry x="110" y="170" width="120" height="60" as="geometry" />
        </mxCell>
        <mxCell id="NTy9AXHpRJVvZ0lb5smv-13" value="" style="edgeStyle=orthogonalEdgeStyle;shape=flexArrow;rounded=0;orthogonalLoop=1;jettySize=auto;html=1;" edge="1" parent="1" source="NTy9AXHpRJVvZ0lb5smv-10" target="NTy9AXHpRJVvZ0lb5smv-12">
          <mxGeometry relative="1" as="geometry" />
        </mxCell>
        <mxCell id="NTy9AXHpRJVvZ0lb5smv-10" value="" style="whiteSpace=wrap;html=1;rounded=1;" vertex="1" parent="1">
          <mxGeometry x="310" y="170" width="120" height="60" as="geometry" />
        </mxCell>
        <mxCell id="NTy9AXHpRJVvZ0lb5smv-12" value="" style="whiteSpace=wrap;html=1;rounded=1;" vertex="1" parent="1">
          <mxGeometry x="510" y="170" width="120" height="60" as="geometry" />
        </mxCell>
      </root>
    </mxGraphModel>
  </diagram>
</mxfile>
